<svg xmlns="http://www.w3.org/2000/svg" width="95" height="92" viewBox="0 0 95 92" fill="none">
  <path d="M42.5377 2.31498C44.0306 1.59318 45.6674 1.21826 47.3257 1.21826C48.9839 1.21826 50.6207 1.59318 52.1137 2.31498L80.2517 15.915C81.7383 16.6338 83.044 17.6781 84.0719 18.9704C85.0999 20.2626 85.8237 21.7698 86.1897 23.38L93.1557 54.018C93.5211 55.6246 93.521 57.2928 93.1552 58.8994C92.7895 60.506 92.0676 62.0098 91.0427 63.3L71.5457 87.842C70.5156 89.1387 69.2061 90.1861 67.7147 90.906C66.2234 91.626 64.5887 91.9999 62.9327 92H31.7187C30.0626 91.9999 28.428 91.626 26.9366 90.906C25.4453 90.1861 24.1357 89.1387 23.1057 87.842L3.60866 63.3C2.58378 62.0098 1.86181 60.506 1.49608 58.8994C1.13035 57.2928 1.13021 55.6246 1.49566 54.018L8.46166 23.383C8.82766 21.7728 9.55147 20.2656 10.5794 18.9734C11.6074 17.6811 12.9131 16.6368 14.3997 15.918L42.5377 2.31498Z" fill="#FFF1F1"/>
</svg>